<svg width="331" height="76" viewBox="0 0 331 76" fill="none" xmlns="http://www.w3.org/2000/svg">
<path d="M31.6069 74.6851H23.1108V9.939H0.894043V2.46829H53.8237V9.939H31.6069V74.6851ZM158.923 74.6851H150.476V40.896H111.707V74.6851H103.259V2.46829H111.707V33.4742H150.476V2.46829H158.923V74.6851ZM225.253 74.6851H216.806V2.46829H225.253V74.6851ZM281.916 62.771C289.435 66.482 297.492 68.3374 306.085 68.3374C316.665 68.3374 321.955 63.5197 321.955 53.8843C321.955 50.7593 321.108 48.2365 319.416 46.3159C317.755 44.3628 314.712 42.8329 310.285 41.7261L295.929 38.1128C284.959 35.3459 279.474 29.4865 279.474 20.5347C279.474 13.6662 281.834 8.57181 286.554 5.2515C291.274 1.89863 297.801 0.222198 306.134 0.222198C310.496 0.222198 314.582 0.694204 318.39 1.63821C322.199 2.58222 325.389 3.85176 327.96 5.44681L325.519 12.3316C323.338 11.1271 320.441 10.0529 316.828 9.10892C313.247 8.16491 309.617 7.6929 305.939 7.6929C294.155 7.6929 288.263 11.7782 288.263 19.9488C288.263 22.7157 289.158 24.9455 290.949 26.6382C292.772 28.2984 295.49 29.5679 299.103 30.4468L312.824 33.7671C318.683 35.1669 323.126 37.413 326.154 40.5054C329.181 43.5653 330.695 47.9273 330.695 53.5913C330.695 60.9481 328.432 66.4982 323.908 70.2417C319.416 73.9527 313.296 75.8081 305.548 75.8081C299.754 75.8081 294.595 75.2222 290.07 74.0503C285.578 72.8459 282.013 71.4299 279.376 69.8023L281.916 62.771Z" fill="black"/>
</svg>
