<svg width="246" height="74" viewBox="0 0 246 74" fill="none" xmlns="http://www.w3.org/2000/svg">
<path d="M64.6218 1.80517V24.8052H45.6218V71.8052H19.6218V24.8052H0.621826V1.80517H64.6218ZM98.5906 25.8052H114.591V1.80517H140.591V71.8052H114.591V47.8052H98.5906V71.8052H72.5906V1.80517H98.5906V25.8052ZM178.571 71.8052H152.571V1.80517H178.571V71.8052ZM212.059 52.8052C213.326 52.8052 214.293 52.5052 214.959 51.9052C215.693 51.2385 216.059 50.5385 216.059 49.8052C216.059 48.9385 215.393 48.2052 214.059 47.6052C212.726 46.9385 211.059 46.2385 209.059 45.5052C207.059 44.7052 204.893 43.7718 202.559 42.7052C200.226 41.6385 198.059 40.2385 196.059 38.5052C194.059 36.7718 192.393 34.6385 191.059 32.1052C189.726 29.5718 189.059 26.4718 189.059 22.8052C189.059 19.9385 189.726 17.1718 191.059 14.5052C192.393 11.7718 194.293 9.37184 196.759 7.30517C199.226 5.17184 202.193 3.47184 205.659 2.20517C209.193 0.938506 213.159 0.305172 217.559 0.305172C222.093 0.305172 226.026 0.905173 229.359 2.10517C232.693 3.23851 235.493 4.47184 237.759 5.80517C240.426 7.47184 242.693 9.30517 244.559 11.3052L235.059 26.3052C233.859 25.3052 232.559 24.4052 231.159 23.6052C229.959 22.8718 228.559 22.2385 226.959 21.7052C225.426 21.1052 223.793 20.8052 222.059 20.8052C220.793 20.8052 219.793 21.1385 219.059 21.8052C218.393 22.4052 218.059 23.0718 218.059 23.8052C218.059 24.6718 218.726 25.4385 220.059 26.1052C221.393 26.7052 223.059 27.4052 225.059 28.2052C227.059 28.9385 229.226 29.8718 231.559 31.0052C233.893 32.0718 236.059 33.4718 238.059 35.2052C240.059 36.8718 241.726 38.9718 243.059 41.5052C244.393 44.0385 245.059 47.1385 245.059 50.8052C245.059 53.6718 244.393 56.4718 243.059 59.2052C241.726 61.8718 239.826 64.2718 237.359 66.4052C234.893 68.4718 231.893 70.1385 228.359 71.4052C224.893 72.6718 220.959 73.3052 216.559 73.3052C211.026 73.3052 206.293 72.7052 202.359 71.5052C198.493 70.2385 195.293 68.8385 192.759 67.3052C189.826 65.5718 187.426 63.5718 185.559 61.3052L195.059 46.3052C196.459 47.5718 198.026 48.6718 199.759 49.6052C201.293 50.4052 203.093 51.1385 205.159 51.8052C207.226 52.4718 209.526 52.8052 212.059 52.8052Z" fill="black"/>
</svg>
