<svg width="288" height="83" viewBox="0 0 288 83" fill="none" xmlns="http://www.w3.org/2000/svg">
<path d="M13.7522 9.21836H0.0522462V0.818353H38.3522V9.21836H25.0522V81.8184H13.7522V9.21836ZM86.6608 0.818353H97.9608V35.8184H118.761V0.818353H130.061V81.8184H118.761V43.9184H97.9608V81.8184H86.6608V0.818353ZM183.816 0.818353H194.916V81.8184H183.816V0.818353ZM267.62 82.7184C260.82 82.7184 255.62 80.6184 252.02 76.4184C248.487 72.2184 246.52 66.4517 246.12 59.1184L256.12 56.4184C256.454 61.6184 257.454 65.8184 259.12 69.0184C260.854 72.2184 263.687 73.8184 267.62 73.8184C270.554 73.8184 272.754 73.0184 274.22 71.4184C275.754 69.7517 276.52 67.385 276.52 64.3184C276.52 60.985 275.82 58.2184 274.42 56.0184C273.02 53.8184 270.787 51.385 267.72 48.7184L254.12 36.7184C251.387 34.3184 249.387 31.7517 248.12 29.0184C246.92 26.2184 246.32 22.8184 246.32 18.8184C246.32 12.885 248.02 8.28502 251.42 5.01836C254.82 1.75169 259.454 0.118356 265.32 0.118356C271.72 0.118356 276.554 1.81836 279.82 5.21836C283.087 8.61836 285.054 13.885 285.72 21.0184L276.12 23.6184C275.787 18.885 274.854 15.2517 273.32 12.7184C271.854 10.1184 269.187 8.81836 265.32 8.81836C262.454 8.81836 260.254 9.58502 258.72 11.1184C257.187 12.585 256.42 14.785 256.42 17.7184C256.42 20.1184 256.82 22.1517 257.62 23.8184C258.42 25.4184 259.787 27.0517 261.72 28.7184L275.42 40.7184C278.954 43.8517 281.754 47.2517 283.82 50.9184C285.954 54.585 287.02 58.7517 287.02 63.4184C287.02 69.3517 285.22 74.0517 281.62 77.5184C278.02 80.985 273.354 82.7184 267.62 82.7184Z" fill="black"/>
</svg>
